<?xml version="1.0" standalone="no"?>
<!DOCTYPE svg PUBLIC "-//W3C//DTD SVG 20010904//EN"
 "http://www.w3.org/TR/2001/REC-SVG-20010904/DTD/svg10.dtd">
<svg version="1.0" xmlns="http://www.w3.org/2000/svg"
 width="30.000000pt" height="25.000000pt" viewBox="0 0 30.000000 25.000000"
 preserveAspectRatio="xMidYMid meet">
<metadata>
Created by potrace 1.16, written by Peter Selinger 2001-2019
</metadata>
<g transform="translate(0.000000,25.000000) scale(0.003122,-0.003329)"
fill="#000000" stroke="none">
<path d="M0 3755 l0 -3755 4805 0 4805 0 0 3755 0 3755 -4805 0 -4805 0 0
-3755z m3318 2956 c151 -56 250 -164 297 -326 30 -101 14 -246 -38 -342 -9
-18 -17 -42 -17 -54 0 -16 56 -79 189 -211 103 -103 192 -188 197 -188 5 0 27
5 49 11 22 5 57 14 78 20 61 15 83 35 97 87 6 26 15 56 20 67 4 11 22 68 39
127 17 59 34 114 37 122 4 10 -15 34 -50 67 -78 72 -119 158 -120 247 -1 89
15 138 68 210 36 48 58 66 113 94 60 29 76 33 148 32 64 0 91 -5 135 -26 144
-66 225 -226 187 -369 -40 -148 -134 -237 -274 -257 -58 -9 -76 -32 -103 -132
-12 -41 -27 -97 -35 -125 -8 -27 -20 -72 -27 -99 l-12 -49 72 -68 c56 -54 79
-69 101 -69 17 0 97 16 178 35 81 20 198 47 258 61 109 25 165 43 165 51 0 35
39 172 61 216 73 145 228 237 399 237 254 0 449 -197 451 -455 2 -136 -41
-235 -143 -331 -221 -210 -585 -141 -719 135 -13 27 -26 41 -39 41 -11 0 -113
-23 -227 -50 -115 -28 -230 -56 -258 -62 -27 -6 -55 -12 -62 -14 -20 -5 -79
-229 -70 -266 4 -13 40 -56 81 -97 l75 -74 58 17 c32 10 81 22 108 28 53 11
183 4 212 -11 10 -5 31 -15 46 -22 41 -19 124 -104 147 -150 80 -155 55 -346
-59 -460 -196 -194 -520 -138 -633 108 -24 53 -28 76 -28 146 0 57 6 103 20
143 11 32 20 68 20 79 0 12 -30 50 -75 93 l-75 74 -52 -4 c-87 -7 -252 -39
-264 -52 -7 -6 -19 -36 -29 -66 -9 -30 -20 -64 -25 -75 -5 -11 -28 -76 -51
-145 -92 -272 -149 -439 -184 -535 -19 -55 -39 -117 -44 -138 -9 -36 -7 -39
27 -65 20 -15 63 -53 95 -85 108 -107 166 -288 138 -435 -27 -142 -69 -230
-148 -313 -113 -119 -273 -164 -490 -139 -211 24 -340 118 -404 295 -18 49
-22 83 -22 190 -1 117 1 138 25 206 15 41 40 97 55 124 42 76 140 167 219 206
69 34 70 34 214 34 l145 0 51 150 c28 83 58 170 67 195 8 25 51 149 95 275 44
127 90 257 102 290 40 107 38 120 -25 204 -30 41 -57 77 -59 79 -3 2 -28 -1
-58 -7 -29 -5 -107 -20 -173 -32 -66 -13 -123 -27 -126 -32 -4 -5 -9 -45 -13
-88 -9 -104 -37 -176 -93 -239 -133 -148 -343 -172 -509 -59 -97 66 -153 178
-154 303 0 89 13 143 48 201 79 131 195 191 352 183 104 -5 170 -34 249 -109
54 -51 66 -55 134 -39 23 5 102 21 175 35 74 14 138 27 142 30 5 3 21 44 35
92 l27 86 -194 194 c-106 106 -197 193 -203 193 -5 0 -46 -14 -90 -31 -226
-89 -451 -24 -585 167 -60 86 -75 140 -75 274 0 112 1 117 38 192 43 88 144
198 202 219 19 7 35 16 35 20 0 7 18 12 95 29 61 13 203 3 263 -19z m3878
-2191 c8 -18 8 -106 2 -309 -6 -187 -6 -287 0 -293 7 -7 75 55 204 186 202
204 216 214 267 186 20 -10 73 -95 115 -184 44 -93 52 -84 -214 -276 -180
-130 -230 -169 -230 -179 0 -5 39 -33 88 -62 144 -86 424 -261 472 -294 79
-55 84 -97 19 -163 -49 -50 -99 -72 -164 -72 -63 0 -84 9 -205 89 -117 78
-344 211 -358 211 -9 0 -12 -55 -12 -214 0 -213 0 -215 -24 -243 -24 -28 -26
-28 -126 -26 -126 2 -131 6 -142 105 -4 40 -10 399 -14 798 -6 560 -4 730 5
748 12 22 15 22 159 20 146 -3 147 -3 158 -28z m-5564 -56 c36 -19 40 -39 36
-188 -2 -104 -6 -128 -21 -143 -16 -16 -46 -19 -282 -23 -156 -3 -268 -9 -274
-15 -7 -7 -7 -93 0 -255 17 -448 27 -881 20 -908 -4 -15 -22 -37 -41 -49 -30
-21 -45 -23 -166 -23 -134 0 -134 0 -166 29 l-33 29 4 559 c3 509 2 560 -13
572 -13 11 -58 12 -244 6 -281 -8 -273 -12 -283 116 -9 107 -10 228 -3 256 3
12 18 26 32 32 42 17 406 26 926 23 394 -3 485 -6 508 -18z m437 -411 l24 -15
-9 -177 c-11 -222 -12 -448 -1 -525 7 -48 15 -66 42 -93 56 -56 120 -42 215
45 68 61 109 133 111 193 2 24 -1 130 -6 235 -4 104 -5 207 -1 228 10 50 47
66 159 66 132 0 122 28 122 -347 0 -413 -13 -731 -31 -760 -18 -29 -140 -51
-184 -33 -36 15 -61 52 -62 91 -1 16 -5 32 -9 35 -4 2 -43 -8 -86 -22 -63 -22
-96 -27 -168 -26 -195 2 -308 62 -346 183 -19 61 -38 368 -39 619 0 330 2 335
170 323 41 -3 86 -12 99 -20z m2275 -63 c16 -6 28 -20 31 -37 4 -15 10 -38 15
-50 l9 -22 58 28 c104 52 183 64 246 37 18 -7 53 -36 79 -65 48 -53 67 -61 88
-36 25 30 150 106 206 125 85 29 136 26 230 -16 67 -29 128 -128 152 -244 30
-147 35 -228 29 -501 -4 -152 -9 -284 -13 -293 -8 -22 -45 -31 -124 -31 -142
0 -154 18 -139 211 29 369 9 555 -62 584 -61 26 -155 -36 -207 -135 -26 -50
-27 -52 -32 -323 l-5 -274 -25 -20 c-21 -17 -36 -19 -115 -16 -69 2 -96 7
-108 20 -15 15 -17 52 -20 325 -3 329 -6 354 -52 375 -50 22 -171 -44 -219
-120 -30 -48 -34 -74 -46 -347 -12 -260 -7 -249 -127 -260 -87 -7 -128 3 -138
34 -3 12 -2 117 4 234 6 116 16 338 22 492 13 296 17 319 62 328 44 9 176 7
201 -3z m1986 -52 c25 -5 81 -28 126 -49 260 -123 354 -438 216 -719 -33 -67
-31 -64 -82 -122 -96 -109 -198 -148 -384 -148 -199 0 -316 38 -410 134 -89
89 -126 195 -126 356 0 55 7 125 15 157 51 200 215 374 380 404 49 9 204 2
265 -13z m2430 -64 c128 -29 243 -117 305 -235 39 -74 45 -131 19 -160 -16
-17 -123 -56 -304 -109 -134 -40 -354 -112 -379 -125 -24 -12 -24 -12 30 -52
135 -98 247 -86 375 43 46 46 81 74 95 74 22 0 127 -59 167 -94 88 -78 -113
-278 -328 -325 -62 -14 -244 -10 -303 6 -107 31 -225 115 -284 204 -30 46 -63
161 -63 222 0 64 27 190 52 246 24 53 90 145 127 179 136 123 310 167 491 126z
m-4674 -1299 c39 -24 56 -44 82 -95 30 -59 33 -72 29 -135 -4 -96 -31 -149
-112 -223 -108 -99 -345 -200 -507 -217 -80 -8 -78 -5 -163 -175 -83 -164
-164 -300 -178 -300 -31 0 -52 60 -27 75 6 3 10 14 10 24 0 32 175 461 257
628 58 120 85 143 164 143 34 0 59 -4 59 -10 0 -6 -31 -72 -70 -148 -69 -134
-84 -179 -57 -169 8 3 65 19 128 37 132 37 187 62 269 125 199 153 172 302
-55 299 -137 -2 -410 -92 -513 -170 -34 -26 -62 -80 -62 -119 0 -12 -7 -28
-15 -35 -13 -10 -19 -10 -35 5 -28 26 -27 111 1 162 48 86 140 165 269 232
136 71 261 102 396 98 70 -2 87 -6 130 -32z m3654 -117 c30 -32 26 -71 -11
-102 -17 -14 -37 -26 -44 -26 -27 0 -63 23 -74 47 -16 34 -14 47 10 77 27 34
88 37 119 4z m-1655 -288 c14 -5 28 -16 31 -25 5 -13 -24 -95 -77 -212 -11
-23 -19 -44 -19 -47 0 -30 204 41 445 156 249 118 253 120 370 125 98 5 101 4
133 -24 35 -29 58 -97 47 -134 -6 -16 -1 -19 32 -19 35 0 191 40 231 59 10 4
69 34 133 65 104 51 121 57 170 54 52 -3 54 -4 52 -30 -1 -15 -20 -66 -43
-113 -23 -48 -40 -89 -37 -91 3 -3 67 18 144 46 76 29 163 60 194 70 31 10
104 39 162 64 113 50 133 53 242 41 86 -8 139 -32 143 -63 l3 -22 -113 6 c-90
5 -120 3 -149 -10 -54 -23 -93 -59 -114 -106 -30 -66 -10 -69 84 -13 169 100
166 99 197 83 14 -8 33 -25 41 -37 13 -20 13 -26 -1 -54 -20 -40 -20 -39 8
-39 42 0 151 39 278 98 222 105 268 118 268 78 0 -29 -65 -66 -259 -150 -307
-134 -451 -150 -451 -50 0 19 -3 34 -6 34 -3 0 -45 -22 -93 -48 -50 -28 -114
-54 -151 -62 -62 -13 -64 -13 -82 10 -20 25 -18 64 10 133 8 21 13 40 10 42
-2 2 -78 -24 -168 -59 -91 -35 -185 -70 -210 -80 -25 -9 -50 -20 -56 -24 -9
-6 -86 -143 -118 -209 -6 -13 -14 -23 -18 -23 -5 0 -8 -4 -8 -8 0 -18 -157
-271 -205 -330 -75 -93 -192 -142 -265 -112 -38 16 -50 37 -50 90 0 80 56 194
145 300 87 102 241 237 312 273 15 8 35 23 44 33 17 20 99 176 99 189 0 9 -12
5 -120 -35 -140 -52 -196 -69 -260 -76 -47 -5 -72 -15 -113 -44 -73 -52 -104
-67 -181 -84 -84 -20 -95 -20 -163 0 -46 14 -57 21 -69 50 -8 18 -14 56 -14
84 0 30 -4 50 -11 50 -6 0 -95 -33 -198 -74 -277 -111 -408 -145 -439 -114
-23 23 -14 101 19 166 17 34 29 67 27 73 -2 6 -89 -46 -193 -115 -105 -69
-200 -126 -212 -126 -31 0 -53 36 -46 74 3 17 21 64 39 105 19 41 32 76 30 78
-12 13 -166 -91 -251 -169 -56 -52 -92 -61 -133 -32 -27 19 -27 30 -3 84 22
49 19 74 -7 60 -238 -127 -412 -178 -531 -154 -28 6 -31 10 -31 46 0 22 -4 38
-9 36 -5 -1 -55 -27 -113 -56 -169 -88 -237 -82 -225 19 13 106 95 217 192
259 67 29 181 41 245 26 96 -23 145 -59 109 -81 -5 -4 -47 -1 -92 5 -116 17
-155 5 -229 -71 -40 -40 -58 -66 -58 -84 0 -14 6 -25 13 -25 21 0 111 46 163
82 67 48 88 52 124 21 33 -27 39 -63 14 -84 -30 -25 10 -29 82 -9 73 20 111
34 212 81 35 16 65 29 67 29 3 0 34 13 69 30 143 65 170 72 194 48 7 -7 12
-27 12 -45 0 -44 15 -43 98 12 75 48 189 95 231 95 65 0 69 -73 8 -162 -32
-48 -9 -49 58 -2 36 24 67 44 70 44 2 0 44 25 92 56 128 83 151 92 198 74z"/>
<path d="M3065 6565 c-27 -8 -53 -14 -56 -15 -20 -1 -114 -100 -137 -144 -23
-44 -26 -63 -26 -141 0 -74 4 -98 22 -133 35 -67 88 -118 154 -152 81 -40 176
-42 255 -6 68 32 138 103 170 173 50 108 16 260 -77 347 -26 25 -65 52 -85 60
-55 23 -160 29 -220 11z"/>
<path d="M4345 6511 c-48 -22 -69 -44 -90 -94 -51 -123 32 -247 168 -247 134
0 219 138 158 258 -23 46 -46 67 -94 87 -47 19 -92 18 -142 -4z"/>
<path d="M5416 5910 c-60 -24 -138 -98 -166 -157 -51 -108 -32 -235 48 -324
63 -71 114 -97 199 -105 134 -13 250 52 310 174 72 147 6 330 -146 404 -64 32
-178 35 -245 8z"/>
<path d="M4088 5481 c-50 -16 -95 -50 -124 -93 -25 -37 -29 -52 -29 -113 0
-52 5 -78 19 -100 84 -131 244 -151 341 -44 45 50 55 76 55 146 0 82 -41 152
-111 188 -34 18 -117 26 -151 16z"/>
<path d="M2980 5251 c-136 -44 -213 -176 -181 -308 17 -69 54 -119 117 -159
48 -31 63 -35 122 -36 100 -1 175 39 226 121 59 95 51 198 -21 297 -49 66
-186 110 -263 85z"/>
<path d="M4765 4824 c-55 -19 -109 -66 -143 -122 -23 -40 -27 -58 -27 -122 1
-109 45 -183 140 -233 57 -30 174 -30 231 0 91 48 144 134 144 233 0 175 -181
303 -345 244z"/>
<path d="M3395 3558 c-32 -17 -76 -61 -91 -90 -8 -15 -14 -51 -14 -79 0 -66
28 -111 88 -140 83 -41 163 -35 221 15 85 75 57 236 -51 292 -32 17 -125 18
-153 2z"/>
<path d="M6176 3566 c-43 -16 -91 -58 -112 -98 -22 -43 -18 -126 9 -165 30
-45 108 -83 169 -83 123 0 195 87 168 203 -28 118 -130 181 -234 143z"/>
<path d="M8594 3641 c-50 -12 -121 -52 -154 -86 -25 -26 -31 -39 -28 -66 2
-28 7 -33 23 -31 23 4 308 93 314 98 10 10 -22 56 -51 74 -35 21 -53 23 -104
11z"/>
<path d="M6690 2084 c-86 -38 -130 -93 -130 -163 0 -48 35 -81 84 -81 39 0
124 41 156 75 l23 24 -32 26 c-17 15 -31 35 -31 44 0 22 31 51 54 51 11 0 16
6 14 18 -4 23 -90 27 -138 6z"/>
<path d="M7225 1689 c-55 -41 -147 -133 -206 -207 -124 -154 -161 -310 -62
-259 35 19 64 51 130 147 57 84 176 315 171 331 -2 6 -17 1 -33 -12z"/>
</g>
</svg>
